Coordinates
version=1
nRows=12
nColumns=33
inDegrees=yes

Units are S.I. units (second, meters, Newtons, ...)
Angles are in degrees.

endheader
time	ground_thorax_rot_x	ground_thorax_rot_y	ground_thorax_rot_z	ground_thorax_tx	ground_thorax_ty	ground_thorax_tz	clav_prot_r	clav_elev_r	scapula_abduction_r	scapula_elevation_r	scapula_upward_rot_r	scapula_winging_r	shoulder_elv_r	plane_of_elev_r	axial_rot_r	elbow_flexion_r	pro_sup_r	wrist_flex_r	wrist_dev_r	clav_prot_l	clav_elev_l	scapula_abduction_l	scapula_elevation_l	scapula_upward_rot_l	scapula_winging_l	shoulder_elv_l	plane_of_elev_l	axial_rot_l	elbow_flexion_l	pro_sup_l	wrist_flex_l	wrist_dev_l
      2.86000000	    -34.95733977	     -5.08289230	     13.12879236	    -93.18935574	    775.83435083	     20.52383293	     -6.95142502	    -45.00000000	     45.00000000	    -45.00000000	     22.42156486	  -3709.69098856	  -1017.69808705	     20.88296165	   -179.99999979	   1805.99801412	   -110.28401852	     13.30014150	      9.77442497	     17.92560469	     36.79532317	    -45.00000000	    -37.79183371	    -31.03646030	    437.89358425	   -821.51380693	    135.69106333	    166.90496459	    370.19120495	     25.59315981	      8.16167379	    -17.34780909
      2.87000000	    -35.06223673	     -5.02944293	     13.16010057	    -94.28232864	    776.15479234	     20.48349878	     -6.86193991	    -45.00000000	     45.00000000	    -45.00000000	     22.44843514	  -3709.81705670	  -1017.59120897	     20.97535373	   -179.99999979	   1806.07232237	   -110.81459319	     13.40213322	      9.85251668	     17.90833217	     36.86237411	    -45.00000000	    -38.02574211	    -31.17805066	    438.05084731	   -821.48879365	    135.51445223	    166.96468895	    370.26932527	     25.53435950	      8.13122725	    -17.35120077
      2.88000000	    -35.11019059	     -4.99870115	     13.17112591	    -95.43919572	    776.50701477	     20.43554240	     -6.89658939	    -45.00000000	     45.00000000	    -45.00000000	     22.44824775	  -3709.81763591	  -1017.49991401	     20.99838077	   -179.99999979	   1806.11994734	   -111.32140635	     13.39318329	      9.89911676	     17.95561215	     37.03036723	    -45.00000000	    -38.16776085	    -31.29809830	    438.09508493	   -821.37925067	    135.54575541	    167.12699253	    370.41957796	     25.45049741	      8.06830217	    -17.37957321
      2.89000000	    -35.21242292	     -5.00377557	     13.17933438	    -96.66533528	    776.89287785	     20.37951102	     -6.84845243	    -45.00000000	     45.00000000	    -45.00000000	     22.53761871	  -3709.95204968	  -1017.43836012	     21.06143671	   -179.99999979	   1806.19934872	   -111.83048543	     13.49275829	      9.98015367	     17.98059775	     37.15129240	    -45.00000000	    -38.37013267	    -31.48032586	    438.26144100	   -821.28561748	    135.46409105	    167.29444462	    370.55504998	     25.35889343	      8.03215671	    -17.40110785
      2.90000000	    -35.29629367	     -5.00697760	     13.15822763	    -97.96335040	    777.31436863	     20.31536643	     -6.87423615	    -45.00000000	     45.00000000	    -45.00000000	     22.55405438	  -3709.96616004	  -1017.41141691	     21.04987493	   -179.99999979	   1806.22675831	   -112.31928899	     13.50599715	     10.03212705	     18.00729580	     37.30434677	    -45.00000000	    -38.47700883	    -31.63177075	    438.37828410	   -821.13415895	    135.52261090	    167.53821073	    370.74938730	     25.24256712	      7.95534577	    -17.43698254
      2.91000000	    -35.46740451	     -4.98542257	     13.40360907	    -99.33251161	    777.77315300	     20.24339133	     -6.77520362	    -45.00000000	     45.00000000	    -45.00000000	     22.42676938	  -3710.16909272	  -1017.26178111	     20.93563903	   -179.99999979	   1806.13121897	   -112.92917135	     13.51640714	     10.01582938	     18.04592360	     37.34222790	    -45.00000000	    -39.20882222	    -32.10768097	    438.11969407	   -821.36039527	    135.40593218	    167.66234726	    370.86211099	     25.12691936	      7.97635696	    -17.47182750
      2.92000000	    -35.66570945	     -5.13521544	     13.58945993	   -100.77545915	    778.27265343	     20.16380106	     -6.74722461	    -45.00000000	     45.00000000	    -45.00000000	     22.35304137	  -3710.37919192	  -1017.24480866	     20.88240370	   -179.99999979	   1806.17581270	   -113.53532761	     13.54776990	     10.06827288	     18.24881916	     37.69551094	    -45.00000000	    -39.60660007	    -32.65956318	    438.10407033	   -821.14471255	    135.42475683	    168.17589867	    371.08897624	     24.92547551	      7.87175321	    -17.49460432
      2.93000000	    -35.70810276	     -5.20326788	     13.74728815	   -102.28842386	    778.81549145	     20.07745889	     -6.67273680	    -45.00000000	     45.00000000	    -45.00000000	     22.26458213	  -3710.48723163	  -1017.08299948	     20.93437195	   -179.99999979	   1806.22280835	   -114.14710211	     13.56436613	     10.11914253	     18.31071290	     37.91979062	    -45.00000000	    -39.89239930	    -33.18489321	    438.01331735	   -821.01587363	    135.44070307	    168.63220592	    371.26705742	     24.72627135	      7.85400975	    -17.53652039
      2.94000000	    -38.19375040	     -7.92080157	     14.50767034	    -98.04415229	    770.68100407	     10.50123409	     -6.39431955	    -45.00000000	     45.00000000	    -45.00000000	     20.21384480	  -3710.79918956	  -1017.61653972	     20.53815422	   -179.99999979	   1806.78203051	   -115.36769764	     13.74425964	     10.46692254	     19.92122754	     39.28556336	    -45.00000000	    -40.93587297	    -34.74366108	    438.69064277	   -819.99923574	    134.87122538	    171.91247397	    368.51979490	     25.78176002	      7.91290893	    -18.57657877
      2.95000000	    -38.33976528	     -7.68996350	     14.21540168	    -99.60414818	    771.51034542	     10.11888916	     -6.22717077	    -45.00000000	     45.00000000	    -45.00000000	     20.55361287	  -3710.72613556	  -1017.48592806	     20.41701859	   -179.99999979	   1806.76629195	   -116.12742711	     13.86266304	     10.57416461	     18.94712848	     39.37894184	    -45.00000000	    -41.08918070	    -34.05497789	    438.85936074	   -819.99021306	    135.03747594	    172.26314379	    368.58567725	     25.86093511	      8.29775989	    -18.90048215
      2.96000000	    -38.37450576	     -7.62870539	     14.16694732	   -101.28165486	    772.34600292	      9.81666133	     -6.27073524	    -45.00000000	     45.00000000	    -45.00000000	     20.64529365	  -3710.79270084	  -1017.31250891	     20.50449688	   -179.99999979	   1806.80145092	   -116.79121322	     13.91906092	     10.65385488	     19.06469362	     39.53129350	    -45.00000000	    -41.32507732	    -34.19135749	    438.93054120	   -819.91309315	    135.01427444	    172.72397655	    368.64937535	     25.59096907	      8.42330963	    -19.06322329
      2.97000000	    -38.47938935	     -7.63310869	     14.21462884	   -103.06205500	    773.20059107	      9.57513545	     -6.27168587	    -45.00000000	     45.00000000	    -45.00000000	     20.72393845	  -3710.93143420	  -1017.17212499	     20.58187508	   -179.99999979	   1806.97220686	   -117.41793589	     13.92437897	     10.74754207	     19.25268177	     39.90007978	    -45.00000000	    -41.78308720	    -34.64619221	    438.89611276	   -819.79277916	    134.83722041	    173.17578596	    368.67698374	     25.14805266	      8.45616843	    -19.11716160
